<svg xmlns="http://www.w3.org/2000/svg" viewBox="0 0 1200 800">
  <defs>
    <linearGradient id="primaryGradient" x1="0%" y1="0%" x2="100%" y2="100%">
      <stop offset="0%" style="stop-color:#1e3a8a;stop-opacity:1" />
      <stop offset="100%" style="stop-color:#3b82f6;stop-opacity:1" />
    </linearGradient>
    <linearGradient id="accentGradient" x1="0%" y1="0%" x2="100%" y2="100%">
      <stop offset="0%" style="stop-color:#60a5fa;stop-opacity:0.8" />
      <stop offset="100%" style="stop-color:#a78bfa;stop-opacity:0.8" />
    </linearGradient>
    <filter id="blur">
      <feGaussianBlur in="SourceGraphic" stdDeviation="3"/>
    </filter>
  </defs>
  
  <!-- Background -->
  <rect width="100%" height="100%" fill="url(#primaryGradient)"/>
  
  <!-- Abstract geometric shapes -->
  <circle cx="100" cy="150" r="80" fill="url(#accentGradient)" opacity="0.3" filter="url(#blur)">
    <animateTransform attributeName="transform" type="translate" values="0,0; 20,10; 0,0" dur="6s" repeatCount="indefinite"/>
  </circle>
  
  <polygon points="900,100 950,200 850,200" fill="rgba(255,255,255,0.1)" opacity="0.5">
    <animateTransform attributeName="transform" type="rotate" values="0 900 150; 360 900 150" dur="20s" repeatCount="indefinite"/>
  </polygon>
  
  <rect x="1000" y="300" width="120" height="120" rx="20" fill="rgba(255,255,255,0.05)" opacity="0.7">
    <animateTransform attributeName="transform" type="translate" values="0,0; -30,15; 0,0" dur="8s" repeatCount="indefinite"/>
  </rect>
  
  <circle cx="200" cy="600" r="60" fill="url(#accentGradient)" opacity="0.2" filter="url(#blur)">
    <animateTransform attributeName="transform" type="translate" values="0,0; 15,-20; 0,0" dur="10s" repeatCount="indefinite"/>
  </circle>
  
  <path d="M700,500 Q750,450 800,500 T900,500" stroke="rgba(255,255,255,0.2)" stroke-width="3" fill="none" opacity="0.6">
    <animate attributeName="stroke-dasharray" values="0,1000; 1000,1000; 0,1000" dur="15s" repeatCount="indefinite"/>
  </path>
  
  <!-- Grid pattern overlay -->
  <pattern id="grid" width="50" height="50" patternUnits="userSpaceOnUse">
    <path d="M 50 0 L 0 0 0 50" fill="none" stroke="rgba(255,255,255,0.05)" stroke-width="1"/>
  </pattern>
  <rect width="100%" height="100%" fill="url(#grid)" opacity="0.5"/>
  
  <!-- Professional icons as decorative elements -->
  <g transform="translate(50, 50)" opacity="0.3">
    <circle cx="0" cy="0" r="25" fill="rgba(255,255,255,0.1)"/>
    <path d="M-10,-10 L10,10 M10,-10 L-10,10" stroke="white" stroke-width="2" stroke-linecap="round"/>
  </g>
  
  <g transform="translate(1100, 150)" opacity="0.2">
    <rect x="-15" y="-15" width="30" height="30" rx="5" fill="rgba(255,255,255,0.1)"/>
    <circle cx="0" cy="0" r="8" fill="white"/>
  </g>
  
  <g transform="translate(950, 600)" opacity="0.25">
    <polygon points="-12,10 12,10 0,-14" fill="rgba(255,255,255,0.1)"/>
    <circle cx="0" cy="-5" r="3" fill="white"/>
  </g>
</svg>
